<?xml version="1.0" standalone="no"?>
<!DOCTYPE svg PUBLIC "-//W3C//DTD SVG 20010904//EN"
 "http://www.w3.org/TR/2001/REC-SVG-20010904/DTD/svg10.dtd">
<svg version="1.0" xmlns="http://www.w3.org/2000/svg"
 width="910.000000pt" height="360.000000pt" viewBox="0 0 910.000000 360.000000"
 preserveAspectRatio="xMidYMid meet">
<metadata>
Created by potrace 1.16, written by Peter Selinger 2001-2019
</metadata>
<g transform="translate(0.000000,360.000000) scale(0.100000,-0.100000)"
fill="#000000" stroke="none">
<path d="M7095 3594 c-258 -34 -432 -85 -628 -181 -272 -134 -459 -291 -676
-569 -53 -67 -216 -374 -225 -424 -1 -3 -9 -25 -18 -50 -17 -46 -35 -115 -65
-255 -25 -117 -25 -472 0 -610 46 -248 127 -463 245 -645 220 -340 493 -574
832 -713 156 -64 249 -93 410 -124 135 -26 504 -26 640 0 429 82 816 313 1082
647 33 41 68 84 77 95 21 26 120 188 143 235 88 184 142 361 173 571 27 187
11 493 -35 664 -6 22 -13 49 -15 59 -2 10 -10 35 -17 55 -7 20 -12 38 -13 41
-1 17 -47 120 -97 218 -46 92 -153 261 -177 282 -3 3 -25 30 -48 60 -124 163
-375 358 -598 465 -260 125 -472 175 -770 180 -104 2 -203 1 -220 -1z m1571
-958 c14 -5 124 -225 124 -247 0 -8 4 -19 8 -25 19 -20 74 -213 88 -304 25
-166 25 -330 0 -500 -19 -128 -90 -340 -169 -503 l-52 -107 -633 0 -633 0 -24
25 -25 24 0 801 0 801 23 22 22 22 630 -3 c347 -1 635 -4 641 -6z m-1840 -449
c38 -19 93 -45 123 -58 30 -13 96 -43 145 -66 l91 -41 3 -69 3 -69 -108 -51
c-59 -28 -159 -74 -221 -103 l-112 -53 -93 43 c-239 112 -338 158 -409 190
-43 19 -77 38 -78 41 0 4 17 14 38 22 20 8 87 39 147 67 61 29 155 73 210 99
55 26 116 54 135 63 48 23 49 23 126 -15z m-620 -426 c93 -43 237 -111 319
-152 l150 -74 -3 -480 c-2 -264 -5 -481 -6 -483 -3 -3 -74 28 -209 92 -54 25
-100 46 -102 46 -3 0 -60 26 -127 58 -68 32 -138 64 -155 71 l-33 13 -2 494
c-2 272 -3 494 -2 494 0 0 76 -35 170 -79z m1001 -822 c19 -42 63 -89 105
-110 l40 -20 -114 -53 c-147 -69 -323 -153 -370 -177 l-38 -19 0 490 0 491
128 60 c70 33 150 70 177 83 l50 23 5 -371 c3 -248 9 -379 17 -397z"/>
<path d="M7835 2460 c-11 -4 -58 -53 -105 -107 l-85 -100 -38 43 c-29 33 -46
44 -68 44 -36 0 -64 -38 -54 -72 7 -24 117 -142 147 -159 28 -15 72 14 128 84
27 34 74 87 105 117 43 43 55 62 55 86 0 45 -45 79 -85 64z"/>
<path d="M8033 2332 c-7 -4 -16 -22 -19 -39 -5 -26 -1 -37 19 -57 l26 -26 252
0 c219 0 255 2 280 17 22 13 29 25 29 49 0 63 -7 64 -306 64 -148 0 -275 -4
-281 -8z"/>
<path d="M7791 1948 c-20 -23 -62 -68 -94 -100 l-58 -58 -40 40 c-46 45 -66
49 -97 20 -39 -36 -29 -65 50 -146 95 -99 105 -98 195 2 37 43 92 102 120 133
60 64 70 108 31 135 -38 27 -68 20 -107 -26z"/>
<path d="M8026 1848 c-22 -32 -20 -61 7 -86 23 -21 30 -22 283 -22 292 0 304
3 304 64 0 65 -5 66 -308 66 -269 0 -271 0 -286 -22z"/>
<path d="M7783 1458 c-28 -29 -71 -75 -96 -103 l-46 -50 -38 38 c-47 45 -85
49 -109 12 -24 -37 -11 -70 54 -135 94 -95 116 -97 180 -17 19 23 69 81 113
129 87 95 100 132 57 162 -38 27 -62 19 -115 -36z"/>
<path d="M8041 1381 c-19 -14 -25 -29 -25 -56 0 -64 5 -65 299 -65 297 0 305
2 305 68 0 31 -5 41 -29 55 -25 15 -61 17 -278 17 -227 0 -250 -2 -272 -19z"/>
<path d="M6269 1228 c-17 -18 -47 -53 -67 -78 -21 -25 -43 -51 -49 -58 -20
-21 -15 -56 10 -80 29 -27 64 -28 91 -3 l21 20 -3 -64 c-3 -58 -1 -67 22 -90
31 -31 41 -31 70 -2 25 25 44 115 30 138 -4 7 3 5 17 -4 42 -30 92 -13 100 33
3 22 -11 69 -25 78 -6 4 -29 29 -50 56 -42 51 -89 86 -119 86 -10 0 -32 -15
-48 -32z"/>
<path d="M38 2196 c-10 -7 -22 -25 -28 -40 -13 -36 -13 -451 1 -536 14 -88 53
-157 109 -192 65 -41 112 -52 235 -52 105 -1 114 1 177 32 39 19 77 46 92 67
54 70 59 100 64 373 2 139 1 269 -2 288 -13 68 -85 96 -138 54 l-26 -20 -4
-267 c-3 -242 -6 -272 -23 -307 -32 -64 -64 -81 -150 -81 -86 0 -118 17 -150
81 -17 35 -20 65 -23 307 l-4 267 -26 20 c-28 23 -79 26 -104 6z"/>
<path d="M2370 2194 c-133 -36 -195 -128 -175 -259 8 -54 57 -115 116 -146 21
-10 89 -33 151 -49 151 -41 187 -66 188 -125 0 -41 -25 -73 -74 -96 -72 -32
-156 -20 -201 31 -11 12 -32 45 -46 73 -28 56 -57 75 -103 63 -36 -9 -58 -59
-47 -107 30 -133 141 -203 321 -204 151 0 251 50 299 148 29 59 29 155 0 215
-35 72 -95 102 -331 167 -95 26 -141 81 -105 125 28 36 62 50 119 50 78 0 103
-14 143 -81 20 -31 42 -60 51 -63 52 -20 114 18 114 71 0 49 -41 115 -92 150
-80 53 -213 68 -328 37z"/>
<path d="M4677 2198 c-33 -26 -37 -66 -37 -414 0 -375 3 -397 55 -410 35 -9
78 9 92 37 7 13 13 58 13 99 0 75 1 75 39 107 l38 32 64 -107 c35 -59 77 -121
93 -139 43 -51 104 -42 125 17 14 40 8 52 -88 204 -45 69 -81 129 -81 133 0 3
29 34 65 68 53 51 65 68 65 94 0 46 -33 75 -79 68 -30 -5 -53 -24 -138 -114
l-102 -108 -1 198 c0 197 0 198 -25 222 -26 27 -71 33 -98 13z"/>
<path d="M2990 2170 c-17 -17 -20 -33 -20 -110 l0 -90 -29 0 c-16 0 -37 -7
-45 -16 -36 -35 -6 -94 47 -94 l27 0 1 -187 c0 -215 7 -247 59 -278 51 -29
187 -29 227 1 33 25 42 73 18 98 -13 12 -28 15 -69 10 -77 -9 -79 -4 -84 192
l-5 164 42 0 c60 0 81 14 81 53 0 45 -16 57 -72 57 l-48 0 0 90 c0 105 -14
130 -75 130 -22 0 -43 -8 -55 -20z"/>
<path d="M880 1983 c-38 -13 -40 -30 -40 -300 l0 -264 25 -24 c29 -30 64 -32
97 -6 24 19 25 24 31 195 7 183 13 211 56 250 12 11 41 21 68 23 42 4 51 2 73
-22 24 -26 25 -31 30 -218 3 -106 9 -199 14 -208 8 -19 48 -39 77 -39 11 0 31
11 44 25 25 24 25 25 25 222 0 114 -5 215 -11 238 -15 53 -73 110 -129 125
-78 21 -170 -1 -227 -53 l-23 -20 -11 32 c-16 44 -52 61 -99 44z"/>
<path d="M1697 1980 c-140 -36 -217 -142 -217 -301 0 -132 59 -234 162 -280
42 -18 71 -23 139 -24 76 0 92 3 144 30 100 51 155 149 155 275 0 176 -107
295 -275 305 -39 2 -87 0 -108 -5z m153 -139 c47 -34 65 -79 65 -161 0 -83
-18 -126 -68 -164 -35 -26 -101 -27 -139 -2 -82 54 -92 240 -18 315 45 45 109
50 160 12z"/>
<path d="M3517 1980 c-140 -36 -217 -142 -217 -301 0 -132 59 -234 162 -280
42 -18 71 -23 139 -24 76 0 92 3 144 30 100 51 155 149 155 275 0 176 -107
295 -275 305 -39 2 -87 0 -108 -5z m153 -139 c47 -34 65 -79 65 -161 0 -83
-18 -126 -68 -164 -35 -26 -101 -27 -139 -2 -82 54 -92 240 -18 315 45 45 109
50 160 12z"/>
<path d="M4173 1972 c-102 -36 -151 -92 -179 -203 -30 -116 0 -250 69 -317 57
-55 120 -77 222 -76 71 0 101 5 143 23 62 28 106 75 123 131 11 36 10 44 -8
68 -25 34 -74 41 -100 14 -10 -11 -31 -36 -47 -57 -78 -102 -205 -75 -242 52
-18 63 -13 127 17 185 23 46 63 68 123 68 46 0 73 -18 133 -93 29 -35 71 -36
103 -2 48 51 2 143 -96 191 -74 36 -185 43 -261 16z"/>
</g>
</svg>
