<?xml version="1.0" standalone="no"?>
<!DOCTYPE svg PUBLIC "-//W3C//DTD SVG 20010904//EN"
 "http://www.w3.org/TR/2001/REC-SVG-20010904/DTD/svg10.dtd">
<svg version="1.0" xmlns="http://www.w3.org/2000/svg"
 width="1000.000000pt" height="1000.000000pt" viewBox="0 0 1000.000000 1000.000000"
 preserveAspectRatio="xMidYMid meet">
<metadata>
Created by potrace 1.16, written by Peter Selinger 2001-2019
</metadata>
<g transform="translate(0.000000,1000.000000) scale(0.100000,-0.100000)"
fill="#000000" stroke="none">
<path d="M4640 6980 c-469 -60 -827 -245 -1148 -595 -117 -128 -208 -265 -291
-440 -253 -531 -206 -1203 118 -1700 253 -388 627 -662 1056 -775 186 -49 242
-55 480 -55 269 0 354 12 565 82 585 193 1029 669 1186 1271 36 140 49 259 49
447 0 187 -12 285 -55 450 -161 612 -677 1116 -1300 1269 -159 39 -230 48
-410 51 -102 2 -214 0 -250 -5z m992 -930 l618 0 50 -100 c131 -261 182 -465
183 -735 2 -269 -68 -542 -202 -795 l-39 -75 -614 -3 c-337 -1 -628 0 -646 3
-18 3 -42 15 -53 26 -18 18 -19 40 -19 827 0 632 3 812 13 824 19 24 50 38 72
33 11 -3 298 -5 637 -5z m-1206 -465 c54 -26 154 -72 221 -103 l123 -57 0 -75
-1 -75 -218 -102 c-120 -57 -223 -103 -228 -103 -9 0 -178 76 -398 180 -60 28
-131 61 -157 72 -27 11 -48 24 -48 28 0 4 61 36 136 71 75 35 205 96 288 136
83 40 158 72 167 73 9 0 61 -20 115 -45z m-671 -403 c132 -60 458 -215 485
-231 19 -11 23 -213 12 -672 l-7 -326 -185 84 c-102 46 -207 94 -235 108 -27
13 -89 42 -137 64 l-88 40 0 478 c0 263 -3 489 -7 502 -8 31 -6 30 162 -47z
m1015 -419 c0 -209 4 -373 10 -394 17 -61 51 -102 107 -129 48 -23 66 -40 44
-40 -6 0 -128 -56 -272 -125 -144 -69 -263 -125 -265 -125 -2 0 -4 224 -4 499
l0 498 93 45 c50 25 117 56 147 69 30 13 71 31 90 41 19 9 38 17 43 18 4 0 7
-161 7 -357z"/>
<path d="M5385 5829 c-19 -17 -65 -67 -102 -111 l-68 -80 -38 46 c-43 51 -73
58 -101 27 -25 -28 -13 -56 53 -124 61 -63 87 -79 112 -66 30 15 239 257 239
276 0 11 -6 26 -12 35 -24 29 -47 29 -83 -3z"/>
<path d="M5600 5711 c-15 -29 -12 -49 10 -71 19 -19 33 -20 273 -20 279 0 297
4 297 59 0 50 -4 51 -297 51 -259 0 -273 -1 -283 -19z"/>
<path d="M5308 5276 l-96 -104 -45 46 c-42 42 -48 45 -71 34 -14 -6 -28 -23
-32 -37 -5 -21 2 -36 43 -82 66 -76 96 -97 125 -89 29 8 242 247 246 276 2 12
-4 30 -14 41 -33 37 -56 24 -156 -85z"/>
<path d="M5606 5244 c-21 -21 -20 -57 2 -77 16 -15 51 -17 279 -17 239 0 261
1 276 18 22 24 21 55 -1 75 -16 15 -51 17 -280 17 -224 0 -263 -2 -276 -16z"/>
<path d="M5309 4795 c-51 -58 -94 -105 -96 -105 -2 0 -21 18 -42 40 -21 22
-47 40 -59 40 -26 0 -56 -42 -48 -68 7 -22 139 -152 154 -152 16 0 42 27 156
157 58 67 106 130 106 141 0 24 -30 52 -57 52 -14 0 -52 -35 -114 -105z"/>
<path d="M5615 4766 c-30 -30 -31 -50 -5 -76 19 -19 33 -20 278 -20 238 0 260
1 275 18 21 23 22 52 3 78 -13 18 -30 19 -270 22 l-256 3 -25 -25z"/>
<path d="M3814 4583 c-100 -113 -108 -129 -74 -163 26 -26 62 -26 85 0 25 28
31 18 27 -50 -5 -73 9 -100 48 -100 36 0 46 18 56 97 l6 62 24 -15 c12 -9 33
-14 46 -12 26 4 48 41 41 69 -9 32 -155 179 -179 179 -13 0 -43 -25 -80 -67z"/>
</g>
</svg>
