<?xml version="1.0" standalone="no"?>
<!DOCTYPE svg PUBLIC "-//W3C//DTD SVG 20010904//EN"
 "http://www.w3.org/TR/2001/REC-SVG-20010904/DTD/svg10.dtd">
<svg version="1.0" xmlns="http://www.w3.org/2000/svg"
 width="512.000000pt" height="512.000000pt" viewBox="0 0 512.000000 512.000000"
 preserveAspectRatio="xMidYMid meet">
<metadata>
Created by potrace 1.16, written by Peter Selinger 2001-2019
</metadata>
<g transform="translate(0.000000,512.000000) scale(0.100000,-0.100000)"
fill="#000000" stroke="none">
<path d="M2235 5105 c-462 -60 -885 -237 -1255 -523 -117 -91 -316 -287 -413
-407 -276 -342 -459 -746 -537 -1186 -28 -156 -39 -531 -21 -702 43 -399 182
-790 398 -1122 98 -150 184 -257 318 -394 419 -430 948 -690 1550 -760 134
-16 460 -13 605 4 748 93 1416 512 1833 1150 210 321 344 690 392 1075 20 162
20 477 0 640 -92 742 -510 1412 -1140 1826 -329 216 -695 350 -1085 399 -152
18 -501 18 -645 0z m449 -795 c60 -25 126 -87 155 -144 18 -36 24 -70 28 -156
l6 -110 263 0 c179 0 264 3 264 11 0 29 44 101 82 133 89 77 224 76 309 -1 56
-51 77 -96 77 -170 0 -64 -19 -115 -60 -160 l-21 -22 23 -48 c31 -66 227 -495
255 -558 8 -16 30 -66 50 -110 21 -44 50 -109 67 -145 79 -175 65 -157 126
-163 61 -6 72 -16 72 -64 0 -40 -21 -53 -84 -53 -25 0 -46 -3 -47 -7 -21 -191
-157 -373 -344 -461 -92 -44 -173 -62 -280 -62 -184 0 -322 57 -450 185 -88
88 -141 182 -164 288 l-12 57 -39 0 c-44 0 -70 20 -70 54 0 39 23 58 77 63
l50 5 33 72 c18 39 51 109 72 156 22 47 47 101 55 120 9 19 35 77 59 128 24
51 44 96 44 98 0 3 23 53 50 111 28 58 50 107 50 109 0 1 18 42 41 91 64 138
63 127 27 178 l-32 45 -273 0 -273 0 0 -74 c0 -101 -14 -118 -104 -124 l-66
-4 0 -1004 0 -1004 245 0 c273 0 290 -3 377 -69 57 -44 108 -138 108 -200 l0
-41 -870 0 -870 0 0 38 c0 89 84 201 185 247 52 24 59 25 299 25 l246 0 0
1005 0 1005 -50 0 c-28 0 -64 7 -80 15 -30 15 -30 17 -30 100 l0 85 -282 0
-283 0 -32 -39 -33 -39 24 -54 c13 -29 42 -92 65 -141 22 -48 41 -89 41 -91 0
-2 19 -44 41 -93 62 -133 94 -203 119 -258 13 -27 38 -84 57 -125 20 -41 47
-100 60 -130 68 -149 58 -137 115 -142 55 -6 78 -24 78 -64 0 -36 -26 -54 -79
-54 l-48 0 -23 -77 c-58 -194 -180 -329 -375 -414 -92 -40 -280 -51 -389 -23
-157 40 -311 154 -392 291 -40 67 -74 159 -74 202 0 17 -6 21 -36 21 -53 0
-74 15 -74 53 0 47 10 56 69 64 31 5 58 15 62 23 5 8 58 123 118 255 121 267
150 332 191 420 15 33 37 80 48 105 11 25 38 84 60 131 l39 86 -32 35 c-33 35
-65 109 -65 152 0 13 7 43 15 67 34 97 103 148 211 157 51 4 71 0 116 -20 60
-28 111 -84 125 -138 l9 -35 277 -3 277 -2 0 99 c0 118 17 166 82 237 61 67
124 94 220 94 54 0 90 -6 122 -20z m885 -3146 c18 -4 53 -26 79 -49 l47 -43 3
-141 4 -141 -1141 0 -1141 0 0 125 c0 92 4 134 15 155 16 31 66 73 105 89 28
11 1975 15 2029 5z"/>
<path d="M1414 3573 c-20 -43 -56 -121 -79 -174 -24 -52 -58 -127 -75 -165
-18 -38 -39 -85 -47 -104 -9 -19 -33 -71 -53 -115 -21 -44 -50 -109 -66 -144
-16 -35 -43 -94 -60 -130 l-31 -66 239 -3 c131 -1 346 -1 477 0 l239 3 -25 55
c-14 30 -40 87 -58 125 -32 69 -57 124 -94 208 -21 47 -54 119 -101 222 -18
39 -44 95 -57 125 -14 30 -35 75 -47 100 -13 25 -24 48 -25 52 -25 75 -34 88
-68 88 -32 0 -35 -3 -69 -77z"/>
<path d="M3570 3578 c-18 -40 -47 -102 -63 -138 -15 -36 -39 -87 -52 -115 -12
-27 -32 -70 -43 -95 -11 -25 -34 -76 -52 -115 -45 -97 -78 -171 -105 -230 -13
-27 -39 -85 -59 -128 -20 -42 -36 -80 -36 -82 0 -3 214 -5 475 -5 261 0 475 3
475 7 0 4 -13 35 -29 68 -16 33 -35 76 -44 95 -8 19 -30 67 -47 105 -18 39
-43 93 -55 120 -13 28 -37 82 -55 120 -18 39 -40 88 -50 110 -10 22 -32 72
-50 110 -18 39 -41 90 -52 115 -50 117 -60 130 -93 130 -29 0 -34 -5 -65 -72z"/>
</g>
</svg>
