<?xml version="1.0" standalone="no"?>
<!DOCTYPE svg PUBLIC "-//W3C//DTD SVG 20010904//EN"
 "http://www.w3.org/TR/2001/REC-SVG-20010904/DTD/svg10.dtd">
<svg version="1.0" xmlns="http://www.w3.org/2000/svg"
 width="128.000000pt" height="128.000000pt" viewBox="0 0 128.000000 128.000000"
 preserveAspectRatio="xMidYMid meet">
<metadata>
Created by potrace 1.16, written by Peter Selinger 2001-2019
</metadata>
<g transform="translate(0.000000,128.000000) scale(0.100000,-0.100000)"
fill="#000000" stroke="none">
<path d="M426 1264 c-3 -9 -6 -38 -6 -65 l0 -49 220 0 220 0 0 49 c0 86 14 81
-220 81 -180 0 -209 -2 -214 -16z"/>
<path d="M154 1066 c-24 -20 -28 -32 -32 -90 l-4 -66 522 0 522 0 -4 66 c-4
58 -8 70 -32 90 l-27 24 -459 0 -459 0 -27 -24z"/>
<path d="M210 813 c0 -94 51 -770 60 -791 l10 -22 354 0 c314 0 355 2 367 16
10 12 22 125 41 383 15 201 27 385 28 409 l0 42 -430 0 -430 0 0 -37z m330
-375 c0 -231 -2 -269 -15 -274 -8 -4 -22 -1 -30 6 -13 10 -15 55 -15 276 0
239 2 264 17 273 40 22 43 2 43 -281z m260 8 c0 -221 -2 -266 -15 -276 -8 -7
-22 -10 -30 -6 -13 5 -15 43 -15 274 0 280 3 302 42 281 17 -9 18 -27 18 -273z"/>
</g>
</svg>
