<?xml version="1.0" standalone="no"?>
<!DOCTYPE svg PUBLIC "-//W3C//DTD SVG 20010904//EN"
 "http://www.w3.org/TR/2001/REC-SVG-20010904/DTD/svg10.dtd">
<svg version="1.0" xmlns="http://www.w3.org/2000/svg"
 width="512.000000pt" height="512.000000pt" viewBox="0 0 512.000000 512.000000"
 preserveAspectRatio="xMidYMid meet">
<metadata>
Created by potrace 1.16, written by Peter Selinger 2001-2019
</metadata>
<g transform="translate(0.000000,512.000000) scale(0.100000,-0.100000)"
fill="#000000" stroke="none">
<path d="M2255 5108 c-649 -73 -1276 -418 -1694 -932 -280 -343 -480 -796
-546 -1231 -17 -117 -20 -519 -5 -660 65 -585 318 -1112 735 -1531 77 -77 178
-170 225 -206 387 -299 796 -470 1273 -533 136 -17 464 -20 602 -5 875 97
1632 627 2023 1417 115 234 199 499 237 748 17 117 21 519 5 660 -53 477 -235
922 -539 1315 -150 195 -434 449 -657 588 -317 197 -702 330 -1079 372 -108
12 -469 11 -580 -2z m705 -2073 l0 -805 194 -2 194 -3 -389 -465 c-213 -256
-393 -465 -398 -465 -6 0 -186 209 -400 465 l-389 465 194 3 194 2 0 805 0
805 400 0 400 0 0 -805z"/>
</g>
</svg>
