<?xml version="1.0" standalone="no"?>
<!DOCTYPE svg PUBLIC "-//W3C//DTD SVG 20010904//EN"
 "http://www.w3.org/TR/2001/REC-SVG-20010904/DTD/svg10.dtd">
<svg version="1.0" xmlns="http://www.w3.org/2000/svg"
 width="512.000000pt" height="512.000000pt" viewBox="0 0 512.000000 512.000000"
 preserveAspectRatio="xMidYMid meet">
<metadata>
Created by potrace 1.16, written by Peter Selinger 2001-2019
</metadata>
<g transform="translate(0.000000,512.000000) scale(0.100000,-0.100000)"
fill="#000000" stroke="none">
<path d="M2485 4478 c-38 -4 -86 -11 -105 -17 -64 -19 -570 -246 -567 -254 3
-11 1717 -817 1737 -817 13 0 737 316 750 328 10 9 -88 84 -160 121 -137 71
-1362 611 -1419 625 -73 18 -150 23 -236 14z"/>
<path d="M1200 3942 c-119 -54 -236 -109 -260 -124 -51 -30 -127 -94 -120
-100 22 -19 1597 -709 1638 -717 67 -14 137 -14 204 0 65 13 512 210 501 220
-10 9 -1713 810 -1733 815 -8 2 -112 -41 -230 -94z"/>
<path d="M654 3428 c-5 -7 -10 -385 -12 -840 -3 -930 -5 -896 70 -1042 57
-109 155 -207 263 -263 84 -43 1323 -596 1388 -619 l37 -13 0 1022 0 1022 -63
18 c-34 10 -417 176 -852 369 -434 193 -797 353 -806 355 -9 3 -21 -1 -25 -9z"/>
<path d="M4070 3275 l-365 -164 -5 -293 c-5 -273 -6 -295 -25 -320 -34 -45
-90 -71 -142 -65 -57 6 -92 31 -120 87 -22 42 -23 56 -23 247 0 112 -2 203 -4
203 -2 0 -120 -52 -262 -115 -141 -64 -290 -125 -330 -138 l-74 -22 0 -1022 0
-1022 38 13 c65 23 1303 576 1387 619 108 56 206 154 263 263 74 144 72 111
71 1019 -1 446 -4 823 -8 840 -3 16 -13 31 -21 32 -8 0 -179 -72 -380 -162z"/>
</g>
</svg>
