<?xml version="1.0" standalone="no"?>
<!DOCTYPE svg PUBLIC "-//W3C//DTD SVG 20010904//EN"
 "http://www.w3.org/TR/2001/REC-SVG-20010904/DTD/svg10.dtd">
<svg version="1.0" xmlns="http://www.w3.org/2000/svg"
 width="364.000000pt" height="360.000000pt" viewBox="0 0 364.000000 360.000000"
 preserveAspectRatio="xMidYMid meet">
<metadata>
Created by potrace 1.16, written by Peter Selinger 2001-2019
</metadata>
<g transform="translate(0.000000,360.000000) scale(0.100000,-0.100000)"
fill="#000000" stroke="none">
<path d="M1635 3594 c-258 -34 -432 -85 -628 -181 -272 -134 -459 -291 -676
-569 -53 -67 -216 -374 -225 -424 -1 -3 -9 -25 -18 -50 -17 -46 -35 -115 -65
-255 -25 -117 -25 -472 0 -610 46 -248 127 -463 245 -645 220 -340 493 -574
832 -713 156 -64 249 -93 410 -124 135 -26 504 -26 640 0 429 82 816 313 1082
647 33 41 68 84 77 95 21 26 120 188 143 235 88 184 142 361 173 571 27 187
11 493 -35 664 -6 22 -13 49 -15 59 -2 10 -10 35 -17 55 -7 20 -12 38 -13 41
-1 17 -47 120 -97 218 -46 92 -153 261 -177 282 -3 3 -25 30 -48 60 -124 163
-375 358 -598 465 -260 125 -472 175 -770 180 -104 2 -203 1 -220 -1z m1571
-958 c14 -5 124 -225 124 -247 0 -8 4 -19 8 -25 19 -20 74 -213 88 -304 25
-166 25 -330 0 -500 -19 -128 -90 -340 -169 -503 l-52 -107 -633 0 -633 0 -24
25 -25 24 0 801 0 801 23 22 22 22 630 -3 c347 -1 635 -4 641 -6z m-1840 -449
c38 -19 93 -45 123 -58 30 -13 96 -43 145 -66 l91 -41 3 -69 3 -69 -108 -51
c-59 -28 -159 -74 -221 -103 l-112 -53 -93 43 c-239 112 -338 158 -409 190
-43 19 -77 38 -78 41 0 4 17 14 38 22 20 8 87 39 147 67 61 29 155 73 210 99
55 26 116 54 135 63 48 23 49 23 126 -15z m-620 -426 c93 -43 237 -111 319
-152 l150 -74 -3 -480 c-2 -264 -5 -481 -6 -483 -3 -3 -74 28 -209 92 -54 25
-100 46 -102 46 -3 0 -60 26 -127 58 -68 32 -138 64 -155 71 l-33 13 -2 494
c-2 272 -3 494 -2 494 0 0 76 -35 170 -79z m1001 -822 c19 -42 63 -89 105
-110 l40 -20 -114 -53 c-147 -69 -323 -153 -370 -177 l-38 -19 0 490 0 491
128 60 c70 33 150 70 177 83 l50 23 5 -371 c3 -248 9 -379 17 -397z"/>
<path d="M2375 2460 c-11 -4 -58 -53 -105 -107 l-85 -100 -38 43 c-29 33 -46
44 -68 44 -36 0 -64 -38 -54 -72 7 -24 117 -142 147 -159 28 -15 72 14 128 84
27 34 74 87 105 117 43 43 55 62 55 86 0 45 -45 79 -85 64z"/>
<path d="M2573 2332 c-7 -4 -16 -22 -19 -39 -5 -26 -1 -37 19 -57 l26 -26 252
0 c219 0 255 2 280 17 22 13 29 25 29 49 0 63 -7 64 -306 64 -148 0 -275 -4
-281 -8z"/>
<path d="M2331 1948 c-20 -23 -62 -68 -94 -100 l-58 -58 -40 40 c-46 45 -66
49 -97 20 -39 -36 -29 -65 50 -146 95 -99 105 -98 195 2 37 43 92 102 120 133
60 64 70 108 31 135 -38 27 -68 20 -107 -26z"/>
<path d="M2566 1848 c-22 -32 -20 -61 7 -86 23 -21 30 -22 283 -22 292 0 304
3 304 64 0 65 -5 66 -308 66 -269 0 -271 0 -286 -22z"/>
<path d="M2323 1458 c-28 -29 -71 -75 -96 -103 l-46 -50 -38 38 c-47 45 -85
49 -109 12 -24 -37 -11 -70 54 -135 94 -95 116 -97 180 -17 19 23 69 81 113
129 87 95 100 132 57 162 -38 27 -62 19 -115 -36z"/>
<path d="M2581 1381 c-19 -14 -25 -29 -25 -56 0 -64 5 -65 299 -65 297 0 305
2 305 68 0 31 -5 41 -29 55 -25 15 -61 17 -278 17 -227 0 -250 -2 -272 -19z"/>
<path d="M809 1228 c-17 -18 -47 -53 -67 -78 -21 -25 -43 -51 -49 -58 -20 -21
-15 -56 10 -80 29 -27 64 -28 91 -3 l21 20 -3 -64 c-3 -58 -1 -67 22 -90 31
-31 41 -31 70 -2 25 25 44 115 30 138 -4 7 3 5 17 -4 42 -30 92 -13 100 33 3
22 -11 69 -25 78 -6 4 -29 29 -50 56 -42 51 -89 86 -119 86 -10 0 -32 -15 -48
-32z"/>
</g>
</svg>
