<?xml version="1.0" standalone="no"?>
<!DOCTYPE svg PUBLIC "-//W3C//DTD SVG 20010904//EN"
 "http://www.w3.org/TR/2001/REC-SVG-20010904/DTD/svg10.dtd">
<svg version="1.0" xmlns="http://www.w3.org/2000/svg"
 width="512.000000pt" height="512.000000pt" viewBox="0 0 512.000000 512.000000"
 preserveAspectRatio="xMidYMid meet">
<metadata>
Created by potrace 1.16, written by Peter Selinger 2001-2019
</metadata>
<g transform="translate(0.000000,512.000000) scale(0.100000,-0.100000)"
fill="#000000" stroke="none">
<path d="M2235 5105 c-462 -60 -885 -237 -1255 -523 -117 -91 -316 -287 -413
-407 -276 -342 -459 -746 -537 -1186 -28 -156 -39 -531 -21 -702 43 -399 182
-790 398 -1122 98 -150 184 -257 318 -394 419 -430 948 -690 1550 -760 134
-16 460 -13 605 4 748 93 1416 512 1833 1150 210 321 344 690 392 1075 20 162
20 477 0 640 -92 742 -510 1412 -1140 1826 -329 216 -695 350 -1085 399 -152
18 -501 18 -645 0z m1113 -1789 l202 -203 0 -52 c0 -52 0 -52 -92 -149 -259
-270 -292 -302 -325 -313 -47 -15 -94 -4 -126 29 -63 66 -51 132 42 226 34 34
61 65 61 69 0 3 -300 8 -666 9 l-666 3 -34 39 c-38 44 -45 96 -20 145 34 64
-1 61 726 61 372 0 660 4 658 9 -1 5 -31 39 -66 76 -66 72 -84 112 -71 159 20
70 53 94 129 95 l45 1 203 -204z m-1242 -894 c32 -23 56 -86 48 -127 -4 -21
-29 -57 -75 -106 -38 -40 -69 -75 -69 -76 0 -2 278 -3 618 -3 579 0 619 -1
651 -18 37 -20 71 -72 71 -109 0 -33 -28 -85 -58 -108 -26 -19 -45 -20 -655
-23 l-629 -3 70 -73 c76 -80 91 -115 72 -171 -18 -55 -62 -85 -123 -85 l-51 0
-186 188 c-102 103 -193 197 -203 210 -20 26 -23 95 -4 119 42 55 377 388 402
399 35 16 88 10 121 -14z"/>
</g>
</svg>
