<?xml version="1.0" standalone="no"?>
<!DOCTYPE svg PUBLIC "-//W3C//DTD SVG 20010904//EN"
 "http://www.w3.org/TR/2001/REC-SVG-20010904/DTD/svg10.dtd">
<svg version="1.0" xmlns="http://www.w3.org/2000/svg"
 width="512.000000pt" height="512.000000pt" viewBox="0 0 512.000000 512.000000"
 preserveAspectRatio="xMidYMid meet">
<metadata>
Created by potrace 1.16, written by Peter Selinger 2001-2019
</metadata>
<g transform="translate(0.000000,512.000000) scale(0.100000,-0.100000)"
fill="#000000" stroke="none">
<path d="M2235 5105 c-462 -60 -885 -237 -1255 -523 -117 -91 -316 -287 -413
-407 -276 -342 -459 -746 -537 -1186 -28 -156 -39 -531 -21 -702 43 -399 182
-790 398 -1122 98 -150 184 -257 318 -394 419 -430 948 -690 1550 -760 134
-16 460 -13 605 4 748 93 1416 512 1833 1150 210 321 344 690 392 1075 20 162
20 477 0 640 -92 742 -510 1412 -1140 1826 -329 216 -695 350 -1085 399 -152
18 -501 18 -645 0z m475 -1265 c25 -9 182 -79 350 -155 168 -75 339 -152 380
-170 198 -86 327 -161 309 -180 -10 -9 -502 -228 -514 -228 -9 0 -215 96 -925
432 -151 71 -276 133 -277 138 -5 16 377 177 446 188 74 12 160 3 231 -25z
m-345 -565 c327 -154 593 -284 591 -289 -5 -18 -305 -146 -358 -154 -29 -4
-76 -4 -104 0 -34 5 -243 94 -600 254 -302 135 -551 247 -553 249 -5 6 49 53
84 73 59 33 320 150 333 149 7 -1 280 -128 607 -282z m-848 -259 c153 -68 405
-180 559 -249 155 -69 300 -131 323 -137 l41 -11 0 -711 0 -710 -27 5 c-25 5
-893 391 -974 432 -46 24 -136 112 -165 161 -13 22 -33 67 -44 99 -19 56 -20
84 -20 629 0 314 3 581 6 594 4 12 10 22 15 22 5 0 133 -56 286 -124z m2357
102 c3 -13 6 -281 6 -596 0 -550 -1 -575 -20 -633 -26 -77 -60 -130 -118 -186
-55 -54 -73 -63 -492 -251 -542 -243 -583 -261 -592 -256 -4 3 -8 324 -8 713
l0 708 65 21 c35 12 139 55 231 97 92 41 171 75 176 75 4 0 8 -70 8 -156 l0
-156 29 -29 c23 -23 38 -29 71 -29 43 0 83 20 97 48 4 9 10 109 13 221 l5 203
250 114 c138 62 255 113 261 113 7 1 14 -9 18 -21z"/>
</g>
</svg>
