<?xml version="1.0" standalone="no"?>
<!DOCTYPE svg PUBLIC "-//W3C//DTD SVG 20010904//EN"
 "http://www.w3.org/TR/2001/REC-SVG-20010904/DTD/svg10.dtd">
<svg version="1.0" xmlns="http://www.w3.org/2000/svg"
 width="512.000000pt" height="512.000000pt" viewBox="0 0 512.000000 512.000000"
 preserveAspectRatio="xMidYMid meet">
<metadata>
Created by potrace 1.16, written by Peter Selinger 2001-2019
</metadata>
<g transform="translate(0.000000,512.000000) scale(0.100000,-0.100000)"
fill="#000000" stroke="none">
<path d="M808 4621 c-145 -47 -269 -174 -312 -320 -13 -45 -16 -114 -16 -393
l0 -338 2080 0 2080 0 0 338 c0 279 -3 348 -16 393 -43 148 -168 274 -315 320
-59 18 -119 19 -1752 18 -1613 0 -1695 -1 -1749 -18z m642 -433 c57 -30 82
-65 87 -125 6 -56 -20 -102 -76 -140 -31 -21 -45 -23 -179 -23 -128 0 -148 2
-182 21 -92 52 -106 173 -28 246 38 36 67 42 203 42 117 1 136 -1 175 -21z
m640 0 c57 -30 82 -65 87 -125 6 -56 -20 -102 -76 -140 -31 -21 -45 -23 -179
-23 -128 0 -148 2 -182 21 -92 52 -106 173 -28 246 38 36 67 42 203 42 117 1
136 -1 175 -21z"/>
<path d="M480 2067 c0 -1060 2 -1199 16 -1248 43 -148 168 -274 315 -320 59
-18 120 -19 1749 -19 1629 0 1690 1 1749 19 147 46 272 172 315 320 14 49 16
188 16 1248 l0 1193 -2080 0 -2080 0 0 -1193z m1457 605 c197 -72 341 -216
415 -414 40 -108 50 -264 23 -382 -90 -405 -531 -640 -915 -489 -318 126 -502
472 -421 793 34 137 82 221 186 326 97 97 177 147 290 180 132 39 292 33 422
-14z m1587 -13 c19 -21 38 -53 41 -71 3 -18 5 -284 3 -590 -3 -547 -3 -557
-24 -585 -11 -15 -36 -38 -54 -50 -66 -45 -167 -18 -209 57 -21 37 -21 46 -21
607 0 534 1 570 19 603 51 96 172 111 245 29z m492 -404 c64 -49 65 -55 62
-454 -3 -347 -4 -361 -24 -388 -72 -97 -186 -97 -258 0 -20 28 -21 39 -21 400
l0 372 24 34 c51 71 150 87 217 36z m-1056 -208 c19 -12 43 -38 54 -57 20 -33
21 -51 21 -286 l0 -250 -27 -41 c-65 -99 -209 -94 -266 10 -15 28 -17 64 -17
282 0 234 1 252 21 285 46 78 144 105 214 57z"/>
<path d="M1581 2384 c-98 -35 -174 -106 -220 -203 -23 -49 -26 -68 -26 -156 1
-90 4 -106 30 -160 37 -76 104 -143 180 -180 54 -26 70 -29 160 -30 88 0 107
3 157 27 76 35 148 104 184 175 27 54 29 66 29 168 0 99 -3 115 -27 165 -35
71 -107 143 -177 178 -46 22 -71 27 -151 29 -68 2 -107 -1 -139 -13z"/>
</g>
</svg>
