<?xml version="1.0" standalone="no"?>
<!DOCTYPE svg PUBLIC "-//W3C//DTD SVG 20010904//EN"
 "http://www.w3.org/TR/2001/REC-SVG-20010904/DTD/svg10.dtd">
<svg version="1.0" xmlns="http://www.w3.org/2000/svg"
 width="128.000000pt" height="128.000000pt" viewBox="0 0 128.000000 128.000000"
 preserveAspectRatio="xMidYMid meet">
<metadata>
Created by potrace 1.16, written by Peter Selinger 2001-2019
</metadata>
<g transform="translate(0.000000,128.000000) scale(0.100000,-0.100000)"
fill="#000000" stroke="none">
<path d="M922 1257 c-38 -40 -30 -84 25 -139 l47 -48 -426 0 c-411 0 -426 -1
-451 -20 -45 -36 -44 -102 2 -137 12 -9 124 -12 445 -13 l429 0 -47 -50 c-62
-66 -64 -125 -5 -155 54 -28 66 -21 206 117 127 126 133 134 133 173 0 38 -6
46 -128 168 -121 121 -129 127 -168 127 -29 0 -46 -6 -62 -23z"/>
<path d="M133 468 c-127 -126 -133 -134 -133 -173 0 -38 6 -46 128 -168 121
-121 129 -127 168 -127 52 0 84 31 84 81 0 28 -9 43 -45 79 l-46 45 411 5 412
5 19 24 c29 36 25 94 -7 120 -26 20 -37 21 -432 21 l-405 0 47 50 c62 66 64
125 5 155 -54 28 -66 21 -206 -117z"/>
</g>
</svg>
