<?xml version="1.0" standalone="no"?>
<!DOCTYPE svg PUBLIC "-//W3C//DTD SVG 20010904//EN"
 "http://www.w3.org/TR/2001/REC-SVG-20010904/DTD/svg10.dtd">
<svg version="1.0" xmlns="http://www.w3.org/2000/svg"
 width="512.000000pt" height="512.000000pt" viewBox="0 0 512.000000 512.000000"
 preserveAspectRatio="xMidYMid meet">
<metadata>
Created by potrace 1.16, written by Peter Selinger 2001-2019
</metadata>
<g transform="translate(0.000000,512.000000) scale(0.100000,-0.100000)"
fill="#000000" stroke="none">
<path d="M661 3683 l-21 -18 2 -963 3 -964 24 -19 c21 -17 40 -19 176 -19
l152 0 5 85 c5 70 12 98 41 159 133 281 494 348 711 133 29 -29 60 -63 69 -77
l16 -25 23 30 c38 52 114 119 166 148 219 119 499 23 609 -209 29 -61 36 -89
41 -159 l5 -85 362 0 362 0 -5 55 c-15 179 90 360 256 442 75 37 78 38 191 38
109 0 120 -2 181 -31 171 -81 283 -268 267 -446 l-5 -58 68 0 c53 0 73 4 94
21 l26 20 0 639 0 638 -170 156 -170 156 -253 0 c-212 0 -256 -2 -275 -16
l-22 -15 0 -475 0 -474 -60 0 -60 0 0 654 0 655 -26 20 -27 21 -1367 0 c-1288
0 -1369 -1 -1389 -17z m625 -357 c18 -14 19 -31 22 -333 3 -312 2 -320 -18
-346 -25 -32 -53 -34 -80 -7 -19 19 -20 33 -20 342 0 285 2 323 17 340 19 22
52 23 79 4z m526 -3 c17 -15 18 -39 18 -344 0 -327 0 -328 -22 -343 -32 -23
-54 -20 -77 10 -20 26 -21 38 -21 331 0 300 3 335 34 355 19 13 49 9 68 -9z
m524 3 c18 -14 19 -31 22 -333 3 -312 2 -320 -18 -346 -25 -32 -53 -34 -80 -7
-19 19 -20 33 -20 342 0 285 2 323 17 340 19 22 52 23 79 4z m524 -6 c19 -19
20 -33 20 -340 0 -307 -1 -321 -20 -340 -11 -11 -29 -20 -40 -20 -11 0 -29 9
-40 20 -19 19 -20 33 -20 338 0 271 2 321 16 340 19 28 57 29 84 2z m1490
-565 l0 -155 -220 0 -220 0 0 155 0 155 220 0 220 0 0 -155z"/>
<path d="M3774 2121 c-99 -25 -177 -92 -223 -190 -21 -46 -26 -70 -26 -136 0
-71 4 -89 33 -148 36 -72 87 -122 161 -158 70 -34 196 -33 271 2 67 32 123 87
158 154 33 66 42 189 18 261 -42 126 -159 213 -293 220 -37 2 -82 0 -99 -5z
m137 -213 c63 -35 85 -106 53 -173 -57 -121 -237 -76 -237 60 0 54 23 92 74
117 44 23 63 23 110 -4z"/>
<path d="M1360 2077 c-96 -27 -191 -114 -223 -203 -21 -61 -22 -174 -2 -235
25 -72 82 -138 155 -178 61 -34 71 -36 155 -36 78 0 97 4 147 28 196 96 246
362 99 530 -71 80 -225 124 -331 94z m158 -215 c63 -41 73 -143 19 -197 -43
-43 -92 -53 -142 -29 -79 37 -100 135 -44 199 48 54 110 64 167 27z"/>
<path d="M2150 2077 c-96 -27 -191 -114 -223 -203 -21 -61 -22 -174 -2 -235
25 -72 82 -138 155 -178 61 -34 71 -36 155 -36 78 0 97 4 147 28 196 96 246
362 99 530 -71 80 -225 124 -331 94z m158 -215 c68 -44 74 -154 11 -206 -90
-76 -220 -6 -206 110 11 98 114 149 195 96z"/>
</g>
</svg>
