<?xml version="1.0" standalone="no"?>
<!DOCTYPE svg PUBLIC "-//W3C//DTD SVG 20010904//EN"
 "http://www.w3.org/TR/2001/REC-SVG-20010904/DTD/svg10.dtd">
<svg version="1.0" xmlns="http://www.w3.org/2000/svg"
 width="512.000000pt" height="512.000000pt" viewBox="0 0 512.000000 512.000000"
 preserveAspectRatio="xMidYMid meet">
<metadata>
Created by potrace 1.16, written by Peter Selinger 2001-2019
</metadata>
<g transform="translate(0.000000,512.000000) scale(0.100000,-0.100000)"
fill="#000000" stroke="none">
<path d="M2076 5101 c-49 -33 -63 -69 -102 -266 -20 -104 -42 -195 -48 -201
-6 -6 -52 -25 -102 -42 -50 -17 -133 -51 -185 -75 l-94 -44 -145 97 c-80 53
-159 104 -177 113 -37 19 -114 22 -146 6 -31 -16 -615 -598 -633 -631 -19 -36
-18 -112 3 -151 9 -18 60 -97 113 -177 l97 -145 -44 -94 c-24 -52 -58 -135
-75 -185 -17 -50 -36 -96 -42 -102 -6 -6 -96 -28 -201 -48 -107 -21 -203 -46
-220 -56 -66 -41 -65 -30 -65 -530 0 -500 -1 -489 65 -530 17 -10 113 -35 220
-56 105 -20 195 -42 201 -48 6 -6 25 -52 42 -102 17 -50 51 -133 75 -185 l44
-94 -97 -145 c-53 -80 -104 -159 -113 -177 -19 -37 -22 -114 -6 -146 16 -31
598 -615 631 -633 36 -19 112 -18 150 2 18 9 96 59 175 112 l143 95 0 479 0
479 -52 62 c-153 183 -262 421 -302 656 -20 120 -21 337 -1 459 61 376 285
720 610 934 231 153 484 229 764 229 281 0 531 -74 759 -224 331 -219 555
-560 617 -939 20 -122 19 -339 -1 -459 -40 -237 -149 -471 -304 -658 l-50 -60
0 -479 0 -479 143 -95 c79 -53 157 -103 175 -112 38 -20 114 -21 150 -2 33 18
615 602 631 633 16 32 13 109 -6 146 -9 18 -60 97 -113 177 l-97 145 44 94
c24 52 58 135 75 185 17 50 36 96 42 102 6 6 97 28 201 48 107 21 203 46 220
56 66 41 65 30 65 530 0 430 -1 454 -19 484 -11 17 -32 38 -48 48 -15 9 -113
33 -218 53 -104 21 -195 43 -201 49 -6 6 -21 43 -34 82 -12 38 -46 122 -74
185 l-52 114 96 145 c53 80 104 159 113 177 19 37 22 114 6 146 -16 31 -598
615 -631 633 -38 20 -112 18 -156 -5 -20 -11 -100 -62 -177 -114 l-139 -93
-107 48 c-58 27 -144 62 -190 78 -46 16 -87 35 -91 42 -4 7 -24 96 -44 198
-20 102 -43 198 -53 213 -9 16 -30 37 -47 48 -30 18 -54 19 -485 19 -430 0
-456 -1 -483 -19z"/>
<path d="M2028 3362 c-186 -122 -331 -326 -394 -557 -30 -109 -27 -380 4 -490
69 -242 229 -446 445 -571 l77 -45 0 -802 c0 -769 1 -803 19 -831 44 -66 44
-66 381 -66 337 0 337 0 381 66 18 28 19 62 19 830 l0 801 85 52 c221 135 368
325 437 566 31 110 34 381 4 490 -64 232 -207 434 -394 557 -63 40 -82 48
-123 48 -59 0 -104 -34 -118 -88 -5 -20 -29 -175 -52 -344 l-44 -308 -195 0
-195 0 -44 308 c-23 169 -47 324 -52 344 -14 54 -59 88 -118 88 -41 0 -60 -8
-123 -48z"/>
</g>
</svg>
