<?xml version="1.0" standalone="no"?>
<!DOCTYPE svg PUBLIC "-//W3C//DTD SVG 20010904//EN"
 "http://www.w3.org/TR/2001/REC-SVG-20010904/DTD/svg10.dtd">
<svg version="1.0" xmlns="http://www.w3.org/2000/svg"
 width="512.000000pt" height="512.000000pt" viewBox="0 0 512.000000 512.000000"
 preserveAspectRatio="xMidYMid meet">
<metadata>
Created by potrace 1.16, written by Peter Selinger 2001-2019
</metadata>
<g transform="translate(0.000000,512.000000) scale(0.100000,-0.100000)"
fill="#000000" stroke="none">
<path d="M2235 5105 c-462 -60 -885 -237 -1255 -523 -117 -91 -316 -287 -413
-407 -276 -342 -459 -746 -537 -1186 -28 -156 -39 -531 -21 -702 43 -399 182
-790 398 -1122 98 -150 184 -257 318 -394 419 -430 948 -690 1550 -760 134
-16 460 -13 605 4 748 93 1416 512 1833 1150 210 321 344 690 392 1075 20 162
20 477 0 640 -92 742 -510 1412 -1140 1826 -329 216 -695 350 -1085 399 -152
18 -501 18 -645 0z m410 -1274 c22 -10 52 -31 66 -47 15 -16 109 -168 209
-339 100 -170 224 -380 275 -465 51 -85 211 -355 356 -600 l264 -445 0 -72 c0
-63 -3 -76 -30 -115 -20 -28 -49 -52 -84 -70 l-55 -28 -1085 0 c-677 0 -1099
4 -1120 10 -110 31 -181 150 -153 253 6 20 120 222 255 449 135 227 374 631
532 898 158 267 297 499 310 516 53 69 174 95 260 55z"/>
<path d="M2482 3183 c-61 -30 -62 -38 -62 -393 0 -281 2 -324 16 -346 51 -76
185 -71 234 9 19 30 20 52 20 337 0 270 -2 309 -18 340 -31 63 -120 88 -190
53z"/>
<path d="M2464 2168 c-60 -56 -62 -137 -5 -192 106 -102 278 17 215 149 -23
49 -67 75 -127 75 -40 0 -53 -5 -83 -32z"/>
</g>
</svg>
