<?xml version="1.0" standalone="no"?>
<!DOCTYPE svg PUBLIC "-//W3C//DTD SVG 20010904//EN"
 "http://www.w3.org/TR/2001/REC-SVG-20010904/DTD/svg10.dtd">
<svg version="1.0" xmlns="http://www.w3.org/2000/svg"
 width="116.000000pt" height="119.000000pt" viewBox="0 0 116.000000 119.000000"
 preserveAspectRatio="xMidYMid meet">
<metadata>
Created by potrace 1.16, written by Peter Selinger 2001-2019
</metadata>
<g transform="translate(0.000000,119.000000) scale(0.100000,-0.100000)"
fill="#000000" stroke="none">
<path d="M931 1136 l-53 -54 90 -92 89 -93 38 34 c50 45 65 78 65 138 0 42 -5
56 -31 86 -29 32 -35 35 -88 35 -55 0 -58 -1 -110 -54z"/>
<path d="M640 839 l-195 -201 -17 -81 c-21 -102 -22 -136 -3 -143 8 -3 56 4
107 15 l92 22 191 196 c104 107 190 201 190 208 0 10 -160 185 -169 185 0 0
-89 -90 -196 -201z"/>
<path d="M85 980 c-22 -11 -50 -35 -62 -53 -23 -33 -23 -35 -23 -431 0 -419 0
-417 48 -469 l26 -27 407 0 c531 0 489 -29 489 339 0 227 -1 241 -19 251 -27
14 -44 13 -67 -4 -18 -13 -19 -31 -24 -243 l-5 -228 -364 -3 c-260 -2 -368 1
-377 9 -11 9 -14 78 -14 366 0 225 4 361 10 374 10 18 23 19 223 19 201 0 215
1 235 20 28 26 28 54 0 80 -20 19 -34 20 -232 20 -191 0 -215 -2 -251 -20z"/>
</g>
</svg>
