<?xml version="1.0" standalone="no"?>
<!DOCTYPE svg PUBLIC "-//W3C//DTD SVG 20010904//EN"
 "http://www.w3.org/TR/2001/REC-SVG-20010904/DTD/svg10.dtd">
<svg version="1.0" xmlns="http://www.w3.org/2000/svg"
 width="512.000000pt" height="512.000000pt" viewBox="0 0 512.000000 512.000000"
 preserveAspectRatio="xMidYMid meet">
<metadata>
Created by potrace 1.16, written by Peter Selinger 2001-2019
</metadata>
<g transform="translate(0.000000,512.000000) scale(0.100000,-0.100000)"
fill="#000000" stroke="none">
<path d="M2235 5105 c-462 -60 -885 -237 -1255 -523 -117 -91 -316 -287 -413
-407 -276 -342 -459 -746 -537 -1186 -28 -156 -39 -531 -21 -702 43 -399 182
-790 398 -1122 98 -150 184 -257 318 -394 419 -430 948 -690 1550 -760 134
-16 460 -13 605 4 748 93 1416 512 1833 1150 210 321 344 690 392 1075 20 162
20 477 0 640 -92 742 -510 1412 -1140 1826 -329 216 -695 350 -1085 399 -152
18 -501 18 -645 0z m892 -817 c17 -10 40 -29 50 -42 l20 -24 254 -4 c225 -3
258 -5 289 -22 64 -34 95 -63 125 -117 l30 -54 0 -1540 0 -1540 -30 -54 c-30
-54 -61 -83 -125 -117 -33 -18 -84 -19 -1174 -22 -1303 -3 -1213 -8 -1302 81
-91 91 -84 -44 -84 1652 0 1672 -5 1557 73 1642 79 86 87 88 376 91 l253 4 33
33 c18 18 51 37 72 43 24 7 230 10 573 9 486 -2 538 -4 567 -19z"/>
<path d="M2162 3583 c-6 -2 -58 -68 -113 -146 -56 -78 -103 -144 -106 -146 -2
-3 -32 23 -66 57 -53 53 -68 62 -98 62 -47 0 -79 -33 -79 -83 0 -33 11 -49 97
-142 54 -57 109 -109 124 -116 50 -20 75 4 223 209 115 161 138 199 138 228 0
62 -60 101 -120 77z"/>
<path d="M2589 3315 c-52 -28 -60 -102 -17 -142 19 -17 48 -18 382 -21 391 -2
399 -1 424 51 19 38 0 92 -38 112 -42 22 -712 21 -751 0z"/>
<path d="M2143 2678 c-11 -13 -60 -79 -108 -148 -49 -69 -90 -127 -92 -129 -2
-2 -34 26 -72 62 -38 37 -76 67 -86 67 -24 0 -72 -27 -79 -45 -3 -9 -6 -33 -6
-52 0 -32 11 -47 107 -144 92 -94 111 -109 139 -109 17 0 41 8 52 18 31 26
282 381 283 400 4 63 -27 102 -81 102 -25 0 -43 -7 -57 -22z"/>
<path d="M2577 2420 c-53 -42 -39 -127 24 -149 21 -7 147 -11 364 -11 217 0
343 4 364 11 63 22 77 107 24 149 -25 19 -40 20 -388 20 -348 0 -363 -1 -388
-20z"/>
<path d="M2163 1805 c-12 -8 -67 -78 -123 -156 l-102 -141 -63 66 c-52 54 -69
66 -94 66 -46 0 -81 -38 -81 -89 0 -36 8 -47 101 -145 56 -59 112 -109 125
-112 53 -13 68 1 209 197 75 106 141 203 146 216 13 34 -13 90 -46 103 -35 13
-47 13 -72 -5z"/>
<path d="M2572 1527 c-36 -38 -38 -78 -7 -115 l27 -32 372 0 373 0 23 25 c16
17 24 37 24 60 0 23 -8 43 -24 60 l-23 25 -372 0 -372 0 -21 -23z"/>
</g>
</svg>
